<svg width="20" height="20" viewBox="0 0 20 20" fill="none" xmlns="http://www.w3.org/2000/svg">
<path fill-rule="evenodd" clip-rule="evenodd" d="M17.5 15.5C17.5 16.6046 16.6046 17.5 15.5 17.5H4.50001C3.39544 17.5 2.5 16.6046 2.50001 15.5L2.50007 4.49999C2.50008 3.39542 3.3955 2.5 4.50007 2.5H15.5C16.6046 2.5 17.5 3.39543 17.5 4.5V15.5Z" stroke="black" stroke-width="2" stroke-linecap="round"/>
<path d="M6.5 5.5C5.94772 5.5 5.5 5.94772 5.5 6.5C5.5 7.05228 5.94772 7.5 6.5 7.5V5.5ZM13.5 7.5C14.0523 7.5 14.5 7.05228 14.5 6.5C14.5 5.94772 14.0523 5.5 13.5 5.5V7.5ZM6.5 7.5L13.5 7.5V5.5L6.5 5.5V7.5Z" fill="#0E151C"/>
<path d="M6.5 9C5.94772 9 5.5 9.44772 5.5 10C5.5 10.5523 5.94772 11 6.5 11V9ZM13.5 11C14.0523 11 14.5 10.5523 14.5 10C14.5 9.44772 14.0523 9 13.5 9V11ZM6.5 11L13.5 11V9L6.5 9V11Z" fill="#0E151C"/>
<path d="M6.5 12.5C5.94772 12.5 5.5 12.9477 5.5 13.5C5.5 14.0523 5.94772 14.5 6.5 14.5V12.5ZM10.5 14.5C11.0523 14.5 11.5 14.0523 11.5 13.5C11.5 12.9477 11.0523 12.5 10.5 12.5V14.5ZM6.5 14.5H10.5V12.5H6.5V14.5Z" fill="#0E151C"/>
</svg>
