<svg width="20" height="20" viewBox="0 0 20 20" fill="none" xmlns="http://www.w3.org/2000/svg">
<path fill-rule="evenodd" clip-rule="evenodd" d="M4.40635 10.7124L4.12417 13.2147L6.63751 13.3714L15.5498 5.89303C15.9729 5.53803 16.0281 4.90727 15.6731 4.48419L14.7275 3.35728C14.3725 2.93421 13.7417 2.87902 13.3187 3.23403L4.40635 10.7124ZM2.01896 14.0353C1.95488 14.6037 2.37964 15.1099 2.95046 15.1454L6.91196 15.3923C7.16802 15.4083 7.42042 15.3252 7.61695 15.1603L16.8354 7.42512C18.1046 6.36011 18.2702 4.46784 17.2052 3.19862L16.2596 2.07171C15.1946 0.802482 13.3023 0.636931 12.0331 1.70194L2.81464 9.43714C2.6181 9.60205 2.49247 9.83619 2.46372 10.0911L2.01896 14.0353ZM3 17C2.44772 17 2 17.4477 2 18C2 18.5523 2.44772 19 3 19H17C17.5523 19 18 18.5523 18 18C18 17.4477 17.5523 17 17 17H3Z" fill="#0E151C"/>
</svg>
