<svg width="392" height="168" viewBox="0 0 392 168" fill="none" xmlns="http://www.w3.org/2000/svg">
<mask id="mask0_5099_69052" style="mask-type:alpha" maskUnits="userSpaceOnUse" x="0" y="0" width="392" height="168">
<rect width="392" height="168" fill="url(#paint0_linear_5099_69052)"/>
</mask>
<g mask="url(#mask0_5099_69052)">
<rect width="392" height="168" fill="url(#paint1_linear_5099_69052)"/>
<path d="M366.136 42.6015C391.869 27.9346 413.275 4.17497 429.937 -28.2708C437.022 -42.0666 442.922 -56.4142 448.629 -70.2879C456.181 -88.6551 463.991 -107.646 474.555 -125.27C496.38 -161.683 528.529 -186.167 565.081 -194.215L564.975 -194.488C545.221 -190.139 526.962 -181.24 510.702 -168.043C496.608 -156.603 484.339 -142.256 474.234 -125.4C463.663 -107.762 455.85 -88.761 448.293 -70.3853C442.59 -56.5156 436.691 -42.1724 429.612 -28.3862C409.378 11.0073 382.155 37.5728 348.69 50.5761C314.084 64.0185 274.437 62.2809 236.099 60.5966C220.269 59.9013 203.899 59.182 188.018 59.5243C163.682 60.0539 138.766 63.3223 113.893 69.2483C73.1473 78.9885 35.9051 95.3109 6.19769 116.447C-0.0514681 120.892 -6.04823 125.612 -11.7559 130.578C-34.0355 150.001 -51.5209 172.783 -68.4143 194.805C-72.2301 199.776 -76.1734 204.918 -80.1087 209.934C-100.909 236.456 -124.74 263.599 -157.985 282.545L-158.464 282.818C-195.309 303.675 -239.244 310.36 -275.995 300.701L-276.096 300.965C-257.209 305.93 -235.951 306.641 -214.61 303.018C-194.918 299.676 -175.432 292.77 -158.256 283.048L-157.774 282.776C-124.476 263.807 -100.629 236.633 -79.8083 210.088C-75.8721 205.073 -71.9284 199.927 -68.1126 194.956C-51.2196 172.938 -33.7532 150.169 -11.4919 130.77C-5.79354 125.811 0.193754 121.098 6.43343 116.66C36.1059 95.5486 73.3022 79.246 114.002 69.5152C138.846 63.5975 163.731 60.3334 188.038 59.8041C203.908 59.4659 220.266 60.1806 236.087 60.8744C255.305 61.725 275.165 62.5891 294.12 61.5417C315.374 60.3748 333.275 56.8664 348.843 50.8197C354.782 48.5181 360.574 45.7654 366.136 42.6015Z" fill="white" fill-opacity="0.6"/>
<path d="M359.852 43.6354C371.981 36.717 383.349 27.8144 393.806 17.0339C405.943 4.51659 417.155 -10.8564 427.098 -28.6439C434.288 -41.4962 440.538 -54.76 446.581 -67.5877C455.397 -86.2936 464.513 -105.638 476.468 -123.373C493.187 -148.173 523.014 -179.662 570.15 -188.846L570.053 -189.123C550.087 -185.232 531.432 -176.906 514.612 -164.38C500.065 -153.55 487.127 -139.798 476.146 -123.514C464.184 -105.756 455.06 -86.4099 446.241 -67.6938C440.198 -54.8706 433.949 -41.6095 426.766 -28.7652C404.861 10.3909 377.277 37.1321 344.787 50.7151C310.679 64.974 271.706 64.5783 234.019 64.196C218.974 64.0432 203.416 63.8836 188.266 64.6491C164.109 65.9361 139.559 69.6185 115.098 75.624C73.8005 85.7093 36.3541 101.389 6.80401 120.963C0.462944 125.161 -5.65656 129.633 -11.5208 134.354C-34.343 152.761 -52.6411 174.373 -70.3387 195.274C-74.3422 200.004 -78.4825 204.897 -82.6096 209.67C-104.507 235.007 -129.434 260.923 -163.182 278.792C-200.331 298.467 -244.382 304.694 -281.021 295.446L-281.117 295.709C-262.159 300.547 -241.117 301.278 -219.581 297.849C-199.941 294.741 -180.369 288.23 -162.983 279.021C-129.18 261.122 -104.236 235.196 -82.3208 209.829C-78.1938 205.055 -74.0536 200.163 -70.0478 195.432C-52.3594 174.54 -34.0671 152.943 -11.2713 134.55C-5.41243 129.834 0.700967 125.367 7.03536 121.173C36.5532 101.628 73.9577 85.9604 115.215 75.8836C139.653 69.8796 164.179 66.1964 188.314 64.9065C203.454 64.1485 219.003 64.3082 234.045 64.465C252.946 64.6565 272.493 64.8536 291.132 63.2158C312.021 61.3772 329.633 57.3679 344.975 50.9544C350.068 48.8244 355.044 46.3768 359.852 43.6354Z" fill="white" fill-opacity="0.6"/>
<path d="M353.688 43.4762C380.352 28.2703 403.663 4.0911 424.611 -30.0233C431.783 -41.7089 438.257 -53.6788 444.517 -65.2564C455.31 -85.2147 465.506 -104.07 479.125 -121.926C497.205 -145.626 528.718 -175.601 576.17 -183.822L576.081 -184.099C528.514 -175.86 496.937 -145.826 478.822 -122.081C465.19 -104.209 454.99 -85.3476 444.191 -65.378C437.93 -53.8127 431.462 -41.8373 424.292 -30.1574C400.165 9.13332 372.919 35.2184 340.998 49.5937C307.315 64.7608 270.709 65.886 231.954 67.0787C217.791 67.5172 203.142 67.9647 188.821 69.1696C165.835 71.1832 141.557 75.3954 116.655 81.6922C74.0031 92.4596 37.348 107.134 7.70204 125.309C1.25598 129.259 -5.00055 133.474 -11.0369 137.936C-34.4551 155.277 -53.6525 175.628 -72.2184 195.309C-76.4349 199.778 -80.7935 204.4 -85.13 208.908C-108.126 232.818 -134.102 257.265 -168.144 274.065C-205.639 292.574 -249.77 298.499 -286.193 289.913L-286.278 290.185C-267.224 294.704 -246.26 295.358 -224.798 292.104C-205.218 289.155 -185.566 283.006 -167.942 274.305C-133.849 257.479 -107.854 233.015 -84.8401 209.085C-80.5023 204.573 -76.1428 199.953 -71.9262 195.484C-53.3697 175.812 -34.1792 155.47 -10.7835 138.145C-4.75542 133.689 1.49279 129.479 7.93057 125.535C37.5501 107.374 74.1666 92.7174 116.782 81.9608C141.657 75.6824 165.921 71.4586 188.88 69.4484C203.199 68.2402 217.84 67.7883 232.009 67.3491C250.605 66.778 269.835 66.1858 288.17 63.8526C308.705 61.24 326.053 56.6537 341.204 49.8311C345.46 47.9138 349.63 45.7913 353.688 43.4762Z" fill="white" fill-opacity="0.6"/>
<path d="M346.359 43.9323C360.056 36.1208 373.222 25.9375 385.612 13.5551C397.952 1.22513 409.728 -13.3862 421.634 -31.1263C428.56 -41.4515 435.004 -51.9592 441.236 -62.1209C453.802 -82.6068 465.67 -101.96 481.175 -120.005C500.563 -142.554 533.673 -170.95 581.367 -178.21L581.288 -178.488C533.481 -171.211 500.3 -142.76 480.882 -120.172C465.352 -102.105 453.478 -82.7455 440.906 -62.2472C434.675 -52.0884 428.231 -41.5835 421.309 -31.2623C394.883 8.12645 368.053 33.5006 336.864 48.5865C303.749 64.6064 267.941 67.2687 230.028 70.0903C216.682 71.0834 202.883 72.1077 189.324 73.7711C167.383 76.4644 144.159 81.0538 118.318 87.8083C74.6646 99.1904 37.8648 113.259 8.93926 129.631C2.4014 133.325 -3.97696 137.276 -10.1684 141.467C-34.1366 157.714 -54.1931 176.769 -73.5914 195.196C-78.0061 199.391 -82.5769 203.722 -87.1089 207.962C-114.9 233.889 -140.038 254.199 -172.387 269.043C-210.708 286.62 -253.721 292.098 -290.397 284.072L-290.477 284.344C-271.369 288.522 -250.526 289.085 -229.187 286C-209.722 283.221 -190.019 277.435 -172.205 269.264C-156.426 262.031 -141.244 252.894 -125.793 241.339C-110.844 230.16 -97.7153 218.282 -86.8381 208.134C-82.307 203.904 -77.7332 199.562 -73.3184 195.368C-53.9294 176.949 -33.8799 157.903 -9.93291 141.669C-3.74801 137.481 2.62403 133.535 9.15574 129.845C38.057 113.496 74.8264 99.4394 118.448 88.0674C144.273 81.3193 167.481 76.7319 189.402 74.0429C202.949 72.3837 216.744 71.3572 230.087 70.3636C248.297 69.0092 267.124 67.6048 285.071 64.5769C305.164 61.1826 322.169 56.0303 337.067 48.8225C340.188 47.315 343.286 45.685 346.359 43.9323Z" fill="white" fill-opacity="0.6"/>
<path d="M339.729 45.1401C354.391 36.7833 368.314 26.0489 382.116 12.4762C394.397 0.401299 406.64 -14.0598 419.546 -31.7302C425.957 -40.5102 432.078 -49.3999 437.998 -57.9937C452.649 -79.2673 466.489 -99.3635 484.259 -117.768C513.943 -148.501 549.742 -167.4 587.788 -172.422L587.718 -172.701C567.174 -169.991 547.344 -163.334 528.793 -152.917L527.786 -152.348C512.167 -143.444 497.426 -131.871 483.977 -117.946C466.19 -99.5248 452.346 -79.4218 437.688 -58.1387C431.778 -49.5524 425.648 -40.658 419.239 -31.8808C401.274 -7.28099 372.834 27.7854 333.455 48.2068C300.607 65.241 265.268 69.4981 227.853 74.005C215.544 75.4876 202.814 77.0207 190.258 79.0446C169.462 82.3951 147.224 87.3469 120.268 94.6252C73.7417 107.157 38.7807 119.906 10.2483 134.749C3.51735 138.25 -3.05199 141.977 -9.27703 145.83C-33.8347 161.018 -54.7892 178.818 -75.0509 196.028C-79.68 199.96 -84.4662 204.026 -89.2169 207.993C-112.645 227.561 -140.678 249.728 -176.927 265.118C-215.589 281.539 -258.668 286.742 -295.119 279.395L-295.192 279.668C-258.652 287.035 -215.485 281.822 -176.752 265.37C-140.458 249.96 -112.406 227.769 -88.9566 208.194C-84.2054 204.222 -79.4175 200.159 -74.7893 196.226C-54.5378 179.023 -33.5925 161.232 -9.05474 146.055C-2.83903 142.211 3.7259 138.497 10.445 134.99C38.954 120.161 73.888 107.42 120.388 94.8972C147.342 87.6155 169.561 82.6697 190.337 79.3297C202.886 77.3076 215.611 75.7752 227.916 74.2921C265.369 69.7805 300.753 65.5141 333.654 48.4521C335.696 47.3891 337.721 46.2851 339.729 45.1401Z" fill="white" fill-opacity="0.6"/>
<path d="M331.061 46.3165C346.881 37.3034 362.086 25.6662 377.481 10.7951C389.76 -1.0675 402.1 -14.9302 416.312 -32.8427C421.847 -39.8163 427.253 -46.8539 432.47 -53.6517C449.575 -75.9337 465.739 -96.9844 486.175 -115.848C518.14 -145.338 554.053 -162.527 592.92 -166.937L592.859 -167.215C572.13 -164.865 551.929 -158.744 532.824 -149.031C516.339 -140.651 500.555 -129.549 485.905 -116.035C465.446 -97.1524 449.281 -76.0973 432.167 -53.8046C426.944 -47.0033 421.547 -39.9703 416.01 -32.9983C394.972 -6.49773 366.055 26.5596 328.938 47.1489C296.231 65.2893 261.236 71.2385 224.19 77.5345C213.095 79.4198 201.622 81.3693 190.257 83.6684C166.283 88.5186 141.986 95.06 121.382 100.819C84.0468 111.224 44.8375 123.081 10.8671 139.273C4.02518 142.533 -2.67216 146.003 -9.05458 149.591C-34.1707 163.716 -56.0047 180.235 -77.1151 196.212C-81.951 199.87 -86.9558 203.657 -91.9155 207.354C-116.357 225.56 -145.493 246.179 -181.966 260.485C-220.917 275.761 -263.991 280.734 -300.15 274.131L-300.218 274.403C-281.155 277.886 -260.617 278.249 -239.177 275.483C-219.89 272.993 -200.05 267.895 -181.802 260.738C-145.284 246.421 -116.131 225.783 -91.6686 207.561C-86.709 203.865 -81.7063 200.079 -76.869 196.417C-55.7658 180.448 -33.9555 163.938 -8.84565 149.823C-2.4809 146.244 4.21077 142.779 11.043 139.522C44.9891 123.343 84.1905 111.491 121.505 101.087C142.103 95.3295 166.39 88.7912 190.353 83.9424C201.711 81.6451 213.182 79.6939 224.273 77.811C261.357 71.5163 296.375 65.5572 329.143 47.3826C329.786 47.0364 330.425 46.6775 331.061 46.3165Z" fill="white" fill-opacity="0.6"/>
<path d="M322.134 48.7282C323.094 48.1821 324.05 47.6265 325.003 47.0614C359.743 26.4787 387.981 -3.80649 413.329 -33.4715C417.513 -38.3697 421.656 -43.3013 425.671 -48.0663C445.653 -71.8154 464.528 -94.2466 488.156 -113.804C521.877 -141.713 558.876 -157.696 598.125 -161.315L598.071 -161.595C577.124 -159.665 556.53 -154.112 536.879 -145.096C519.891 -137.304 503.411 -126.841 487.897 -114.003C464.25 -94.4277 445.367 -71.9886 425.376 -48.2305C421.361 -43.4609 417.212 -38.5286 413.035 -33.6356C387.711 -3.99388 359.484 26.2749 324.796 46.8282C291.972 66.2723 257.044 73.9209 220.05 82.0241C210.389 84.1394 200.401 86.3281 190.473 88.7373C170.064 93.6902 149.204 99.6798 127.114 106.026L119.626 108.172C82.667 118.743 44.4409 129.679 11.5437 143.963C4.59687 146.983 -2.23387 150.192 -8.75067 153.511C-34.4274 166.582 -57.1086 181.865 -79.0408 196.65C-84.0852 200.05 -89.3014 203.566 -94.47 206.997C-119.904 223.889 -150.117 243.014 -186.829 256.199C-226.662 270.514 -268.696 275.011 -305.18 268.867L-305.241 269.142C-286.183 272.347 -265.655 272.681 -244.256 270.117C-225.044 267.816 -205.129 263.093 -186.674 256.464C-149.927 243.264 -119.69 224.125 -94.237 207.221C-89.0684 203.79 -83.8522 200.273 -78.8078 196.874C-56.8835 182.095 -34.212 166.815 -8.5521 153.755C-2.04189 150.44 4.77829 147.232 11.7216 144.215C44.5959 129.942 82.8056 119.012 119.754 108.436L127.242 106.29C149.325 99.9477 170.182 93.9576 190.583 89.0065C200.506 86.598 210.492 84.4105 220.15 82.2964C256.091 74.4217 290.102 66.9735 322.134 48.7282Z" fill="white" fill-opacity="0.6"/>
<path d="M312.745 51.3828C315.636 49.7352 318.508 48.0107 321.362 46.2094C355.12 24.8775 383.009 -4.18801 410.966 -34.6024C413.191 -37.0293 415.404 -39.4438 417.606 -41.8461C441.12 -67.519 463.329 -91.766 490.89 -112.22C526.375 -138.535 564.486 -153.335 604.178 -156.223L604.135 -156.503C564.363 -153.612 526.179 -138.784 490.632 -112.426C463.046 -91.9612 440.826 -67.7023 417.304 -42.0187C415.105 -39.615 412.891 -37.201 410.663 -34.7767C382.723 -4.37157 354.847 24.6732 321.122 45.9832C287.818 67.0262 252.515 76.6147 215.135 86.7632C207.284 88.896 199.164 91.1011 191.08 93.413C178.933 96.8887 166.69 100.622 153.712 104.585C144.161 107.506 134.284 110.513 124.23 113.482C115.707 115.993 107.015 118.484 98.6074 120.893C69.4032 129.262 39.2071 137.916 12.5037 148.423C5.44278 151.202 -1.52093 154.16 -8.19555 157.218C-34.4546 169.246 -58.0104 183.304 -80.7915 196.9C-86.0515 200.039 -91.4896 203.284 -96.8703 206.45C-123.34 222.035 -154.66 239.651 -191.631 251.762C-231.801 264.924 -273.914 269.13 -310.211 263.602L-310.266 263.879C-273.901 269.417 -231.72 265.206 -191.489 252.022C-154.491 239.904 -123.141 222.265 -96.6545 206.679C-91.2738 203.512 -85.8335 200.266 -80.5758 197.128C-57.8004 183.537 -34.2534 169.485 -8.01291 157.464C-1.34488 154.409 5.61355 151.452 12.6678 148.676C39.3549 138.176 69.5413 129.525 98.7358 121.159C107.144 118.75 115.837 116.258 124.364 113.748C134.409 110.776 144.292 107.765 153.848 104.849C166.815 100.892 179.064 97.1535 191.209 93.6789C199.292 91.3654 207.407 89.1626 215.259 87.0298C249.474 77.7465 281.946 68.9291 312.745 51.3828Z" fill="white" fill-opacity="0.6"/>
<path d="M301.634 56.0605C307.131 52.9298 312.501 49.5979 317.725 46.0773C350.192 24.1801 377.94 -4.11617 404.783 -31.4668L408.326 -35.0769C434.095 -61.3231 460.733 -88.4735 493.09 -110.022C530.178 -134.727 569.359 -148.279 609.542 -150.303L609.504 -150.585C569.249 -148.557 530.004 -134.983 492.857 -110.241C460.481 -88.6699 433.826 -61.513 408.047 -35.2549L404.504 -31.6432C377.676 -4.29618 349.932 23.9811 317.494 45.8615C283.169 69.0111 246.859 80.779 208.415 93.2392C203.031 94.9843 197.465 96.7866 191.925 98.6173C186.526 100.4 181.18 102.192 175.517 104.087C159.72 109.376 143.381 114.855 126.154 120.053C111.902 124.344 97.2932 128.375 83.1655 132.272C58.7706 139.002 35.7233 145.362 13.9162 153.049C6.75729 155.574 -0.331905 158.27 -7.15582 161.058C-33.9485 172.005 -58.3307 184.813 -81.911 197.197C-87.3744 200.068 -93.0254 203.037 -98.6165 205.932C-126.066 220.16 -158.463 236.255 -195.621 247.213C-236.071 259.148 -278.245 262.937 -314.356 257.873L-314.404 258.151C-295.348 260.824 -274.864 261.091 -253.515 258.939C-234.244 257.004 -214.769 253.158 -195.487 247.478C-158.297 236.511 -125.884 220.399 -98.4142 206.178C-92.8218 203.28 -87.1699 200.312 -81.7064 197.442C-58.1345 185.058 -33.7597 172.252 -6.98304 161.317C-0.163551 158.531 6.92125 155.838 14.0727 153.315C35.8706 145.627 58.906 139.271 83.2977 132.55C97.4268 128.651 112.036 124.622 126.295 120.327C143.524 115.122 159.866 109.649 175.668 104.358C181.331 102.463 186.682 100.68 192.081 98.8981C197.618 97.0685 203.183 95.2646 208.568 93.5195C241.077 82.9627 272.069 72.9175 301.634 56.0605Z" fill="white" fill-opacity="0.6"/>
<path d="M286.981 62.5846C296.142 57.3728 305.007 51.6951 313.511 45.5928C341.47 25.5097 366.927 1.03939 391.528 -22.6139C396.059 -26.968 400.744 -31.4727 405.296 -35.8022C431.825 -61.0444 460.612 -87.4095 495.07 -107.974C533.764 -131.059 574.032 -143.401 614.753 -144.663L614.726 -144.946C573.935 -143.683 533.605 -131.317 494.851 -108.203C460.358 -87.6198 431.562 -61.2455 405.03 -35.9933C400.478 -31.6638 395.794 -27.1602 391.261 -22.8049C366.66 0.846698 341.221 25.3032 313.277 45.3677C276.721 71.6269 238.062 86.2402 197.13 101.711L192.119 103.605C172.749 110.935 150.793 119.247 127.403 126.506C108.616 132.318 89.2333 137.358 70.4865 142.234C50.9277 147.32 32.4389 152.129 14.6138 157.731C7.33842 160.016 0.119149 162.451 -6.84656 164.972C-34.1922 174.862 -59.4298 186.424 -83.8347 197.606C-89.5043 200.205 -95.3838 202.898 -101.188 205.525C-130.961 218.996 -163.157 232.974 -200.516 242.843C-229.35 250.467 -273.377 258.35 -319.387 252.609L-319.429 252.888C-273.352 258.639 -229.263 250.746 -200.394 243.112C-163.006 233.236 -130.794 219.25 -101.004 205.773C-95.2004 203.145 -89.3284 200.454 -83.6505 197.855C-59.2509 186.674 -34.023 175.115 -6.69398 165.225C0.266427 162.705 7.4804 160.27 14.7514 157.987C32.5676 152.391 51.0438 147.584 70.6025 142.497C89.3537 137.62 108.745 132.579 127.538 126.763C150.938 119.502 172.902 111.188 192.279 103.855L197.286 101.962C228.474 90.198 258.348 78.9056 286.981 62.5846Z" fill="white" fill-opacity="0.6"/>
<path d="M267.302 72.841C281.704 64.6369 295.898 55.4367 309.85 44.7479C332.854 27.1164 354.918 6.76286 376.256 -12.9184C384.981 -20.971 394.02 -29.3038 402.81 -37.1525C430.196 -61.6182 460.639 -86.9823 497.625 -106.735C537.896 -128.226 579.321 -139.314 620.748 -139.687L620.728 -139.97C579.24 -139.601 537.757 -128.502 497.42 -106.974C460.401 -87.21 429.939 -61.834 402.537 -37.3557C393.746 -29.5041 384.716 -21.1743 375.982 -13.1186C354.648 6.56026 332.589 26.907 309.598 44.5299C272.14 73.2411 232.951 91.0884 192.743 108.325C173.591 116.536 152.609 125.16 128.992 132.662C106.503 139.776 83.0872 145.345 60.4443 150.728C44.7648 154.458 29.9557 157.978 15.4498 161.969C8.06701 163.999 0.696504 166.175 -6.43376 168.422C-34.3787 177.233 -60.4988 187.545 -85.7613 197.517C-91.663 199.846 -97.7651 202.255 -103.793 204.606C-134.683 216.656 -167.989 229.148 -205.604 237.886C-234.703 244.65 -279.02 251.628 -324.885 246.46L-324.917 246.743C-278.992 251.918 -234.619 244.929 -205.491 238.16C-167.842 229.411 -134.529 216.917 -103.627 204.863C-97.5991 202.512 -91.4971 200.103 -85.5931 197.773C-60.3431 187.81 -34.2184 177.496 -6.29547 168.686C0.82825 166.431 8.18726 164.265 15.5754 162.235C30.0738 158.246 44.8798 154.724 60.5571 150.996C83.2075 145.611 106.623 140.042 129.131 132.923C152.766 125.422 173.757 116.787 192.918 108.572C218.17 97.7553 243.027 86.6853 267.302 72.841Z" fill="white" fill-opacity="0.6"/>
<path d="M238.621 88.9248C263.693 74.64 284.898 60.1665 305.311 43.6123C322.545 29.6354 339.783 14.2887 356.449 -0.550063C370.598 -13.147 385.226 -26.1717 399.639 -38.1534C436.562 -68.8631 467.383 -89.4046 499.571 -104.755C541.302 -124.651 583.746 -134.658 625.722 -134.503L625.712 -134.784C583.673 -134.941 541.164 -124.925 499.384 -104.998C467.166 -89.6343 436.315 -69.075 399.38 -38.3523C384.967 -26.369 370.332 -13.3408 356.182 -0.741025C339.511 14.0923 322.278 29.4428 305.043 43.418C273.315 69.1469 239.676 89.8451 192.563 112.624C176.598 120.344 155.048 130.265 129.916 138.519C104.449 146.857 77.6641 152.689 51.7531 158.334C39.3487 161.035 27.6348 163.586 16.0074 166.405C8.52842 168.216 1.04657 170.151 -6.23047 172.154C-34.684 179.981 -61.6262 189.099 -87.6815 197.916C-93.7974 199.985 -100.114 202.122 -106.364 204.214C-138.302 214.902 -172.641 225.992 -210.364 233.789C-252.32 242.467 -293.502 245.335 -329.45 242.081L-329.478 242.362C-293.486 245.618 -252.262 242.749 -210.263 234.061C-172.521 226.259 -138.168 215.167 -106.217 204.474C-99.976 202.385 -93.6497 200.245 -87.5339 198.175C-61.475 189.354 -34.5482 180.245 -6.10744 172.42C1.16739 170.418 8.64703 168.485 16.1207 166.674C27.7384 163.859 39.4532 161.309 51.8656 158.602C77.7797 152.957 104.576 147.121 130.068 138.774C155.224 130.514 176.785 120.587 192.764 112.862C209.589 104.726 224.7 96.8542 238.621 88.9248Z" fill="white" fill-opacity="0.6"/>
<path d="M631.787 -129.393L631.785 -129.675C588.995 -130.621 545.41 -121.805 502.247 -103.47C467.564 -88.7323 434.199 -68.4269 397.241 -39.5681C374.946 -22.1624 352.898 -2.63485 331.576 16.2493C321.765 24.9379 311.621 33.9235 301.71 42.4637C267.236 72.1816 232.89 95.8994 193.618 117.115C171.486 129.072 151.915 137.768 132.018 144.461C104.044 153.856 74.2791 159.562 45.4925 165.079C36.2563 166.85 26.7078 168.68 17.5622 170.575C9.97272 172.147 2.36245 173.824 -5.06091 175.562C-34.0572 182.341 -61.8318 190.223 -88.7061 197.853C-95.0425 199.65 -101.594 201.51 -108.058 203.327C-141.08 212.603 -176.487 222.222 -214.37 228.962C-257.232 236.593 -297.344 239.079 -333.596 236.352L-333.617 236.633C-297.333 239.358 -257.189 236.878 -214.279 229.242C-176.379 222.498 -140.95 212.872 -107.93 203.597C-101.465 201.782 -94.9115 199.921 -88.5664 198.119C-61.7014 190.498 -33.9292 182.611 -4.93915 175.831C2.47978 174.095 10.0878 172.419 17.6742 170.847C26.8146 168.953 36.363 167.122 45.597 165.353C74.3963 159.833 104.173 154.128 132.172 144.722C152.087 138.015 171.678 129.319 193.831 117.355C233.125 96.126 267.489 72.3945 301.98 42.6629C311.885 34.1261 322.032 25.1395 331.846 16.4469C353.175 -2.43913 375.21 -21.9597 397.497 -39.3591C434.434 -68.1925 467.775 -88.4913 502.426 -103.215C545.532 -121.534 589.054 -130.349 631.787 -129.393Z" fill="white" fill-opacity="0.6"/>
<path d="M637.364 -123.069L637.368 -123.349C593.684 -125.222 548.981 -117.684 504.498 -100.947C467.535 -87.0377 431.553 -67.0268 394.494 -39.7804C359.923 -14.3635 326.95 15.9299 297.859 42.6582C268.538 69.5979 235.689 97.961 194.222 122.876C173.126 135.553 153.891 144.697 133.661 151.66C103.583 161.981 71.1446 167.245 39.7674 172.322C32.7652 173.461 25.5435 174.626 18.5612 175.824C10.8574 177.144 3.10558 178.554 -4.46767 180.01C-34.0349 185.719 -62.6776 192.335 -90.3789 198.729C-96.9406 200.246 -103.724 201.811 -110.413 203.342C-145.964 211.48 -181.032 219.24 -219.127 224.868C-262.33 231.257 -302.537 233.35 -338.628 231.089L-338.641 231.37C-302.521 233.633 -262.283 231.54 -219.048 225.147C-180.942 219.515 -145.861 211.746 -110.305 203.614C-103.614 202.085 -96.8317 200.517 -90.27 199.001C-62.5735 192.603 -33.933 185.988 -4.38311 180.305C3.19274 178.854 10.9367 177.439 18.6373 176.119C25.6117 174.928 32.8481 173.752 39.8392 172.619C71.2288 167.534 103.689 162.274 133.796 151.935C154.039 144.965 173.308 135.813 194.425 123.119C235.916 98.1895 268.781 69.8138 298.116 42.8628C327.201 16.1395 360.166 -14.1475 394.72 -39.5535C431.75 -66.7848 467.703 -86.7807 504.638 -100.675C549.081 -117.404 593.729 -124.932 637.364 -123.069Z" fill="white" fill-opacity="0.6"/>
<path d="M642.788 -117.027L642.8 -117.31C598.168 -120.077 552.359 -113.787 506.643 -98.6292C467.025 -85.4888 429.401 -66.3878 391.623 -40.2355C360.909 -18.9761 329.835 7.32452 293.834 42.5325L290.898 45.4028C259.922 75.7062 230.661 104.323 194.644 128.319C174.735 141.574 155.268 151.466 135.136 158.561C103.302 169.755 68.4587 174.353 34.7679 178.815C29.723 179.483 24.5047 180.174 19.4395 180.866C11.6209 181.938 3.73939 183.083 -3.9897 184.267C-34.1124 188.888 -63.6123 194.239 -92.1397 199.421C-99.0409 200.675 -105.947 201.926 -112.858 203.175C-149.581 209.784 -185.709 216.095 -223.944 220.644C-267.474 225.831 -307.749 227.575 -343.657 225.823L-343.666 226.107C-307.736 227.851 -267.436 226.106 -223.883 220.916C-185.635 216.365 -149.501 210.055 -112.771 203.443C-105.857 202.199 -98.9508 200.948 -92.0519 199.69C-63.532 194.509 -34.0342 189.149 -3.91246 184.537C3.81355 183.353 11.6928 182.209 19.5084 181.137C24.5759 180.443 29.791 179.751 34.8346 179.087C68.5499 174.629 103.413 170.02 135.285 158.812C155.446 151.709 174.937 141.804 194.873 128.531C230.921 104.533 260.188 75.9008 291.18 45.5864L294.114 42.7173C330.11 7.52669 361.165 -18.768 391.866 -40.0187C429.617 -66.1526 467.21 -85.2374 506.795 -98.3666C552.455 -113.508 598.213 -119.788 642.788 -117.027Z" fill="white" fill-opacity="0.6"/>
<path d="M648.557 -112.481L648.578 -112.763C602.961 -116.271 556.063 -111.115 509.182 -97.432C467.576 -85.2862 427.156 -66.5443 389.044 -41.7412C355.023 -19.5964 321.665 8.31876 289.895 41.2299C283.512 47.8459 277.195 54.5434 271.088 61.0205C246.654 86.937 223.572 111.417 194.935 132.421C175.823 146.441 156.674 156.827 136.422 164.157C103.098 176.192 66.0841 180.063 30.2923 183.803C26.8956 184.158 23.5144 184.514 20.1488 184.87C12.2289 185.714 4.21535 186.616 -3.66782 187.545C-34.3353 191.163 -64.6694 195.341 -94.0016 199.377C-101.142 200.362 -108.287 201.343 -115.435 202.32C-153.319 207.49 -190.496 212.431 -228.858 216.025C-273.312 220.194 -312.513 221.669 -348.69 220.56L-348.691 220.843C-312.491 221.959 -273.276 220.476 -228.803 216.306C-190.433 212.712 -153.249 207.773 -115.361 202.601C-108.21 201.625 -101.066 200.644 -93.9295 199.659C-64.5985 195.615 -34.2662 191.445 -3.60402 187.827C4.27829 186.896 12.2922 186.001 20.2086 185.15C23.5693 184.788 26.9507 184.433 30.3529 184.085C66.172 180.343 103.212 176.473 136.58 164.415C156.866 157.074 176.034 146.677 195.182 132.633C223.841 111.612 246.936 87.13 271.377 61.195C277.482 54.7207 283.794 48.0239 290.181 41.4084C321.936 8.51756 355.274 -19.3872 389.277 -41.5182C427.357 -66.3068 467.746 -85.0307 509.319 -97.1669C556.145 -110.834 602.993 -115.986 648.557 -112.481Z" fill="white" fill-opacity="0.6"/>
<path d="M653.816 -106.755L653.846 -107.036C607.169 -111.462 559.22 -107.545 511.327 -95.3904C467.312 -84.2203 425.247 -66.4372 386.29 -42.5329C349.78 -20.1324 315.121 8.63257 286.064 40.6514C277.165 50.4576 268.562 60.588 260.238 70.3745C239.622 94.6346 220.149 117.553 195.629 137.283C177.394 152.044 158.616 162.894 138.213 170.454C103.685 183.23 64.7092 186.114 27.0174 188.909L21.4713 189.321C13.4823 189.919 5.34446 190.555 -2.71574 191.216C-33.908 193.77 -65.0554 196.699 -95.1792 199.531C-102.543 200.224 -109.911 200.915 -117.28 201.604C-157.803 205.385 -194.475 208.723 -232.947 211.277C-277.672 214.251 -316.888 215.414 -352.837 214.832L-352.83 215.114C-316.87 215.695 -277.641 214.534 -232.902 211.56C-194.427 209.003 -157.751 205.665 -117.226 201.885C-109.855 201.197 -102.488 200.506 -95.1245 199.812C-65.0037 196.98 -33.8555 194.052 -2.66629 191.497C5.39651 190.842 13.533 190.198 21.5175 189.602L27.0636 189.191C64.7846 186.397 103.791 183.507 138.37 170.71C158.799 163.136 177.611 152.275 195.875 137.488C220.416 117.739 239.899 94.8135 260.524 70.5443C268.843 60.754 277.449 50.6302 286.343 40.8291C315.392 8.82548 350.017 -19.9161 386.501 -42.3026C425.424 -66.1852 467.459 -83.9563 511.437 -95.1173C559.292 -107.263 607.192 -111.177 653.816 -106.755Z" fill="white" fill-opacity="0.6"/>
<path d="M659.926 -101.565L659.962 -101.845C612.082 -107.175 563.007 -104.45 514.103 -93.7466C467.678 -83.583 423.887 -66.7121 383.938 -43.6002C364.405 -32.3049 345.894 -19.4908 328.726 -5.38082C311.738 8.58639 296.203 23.7731 282.403 39.9061C272.243 51.7994 262.636 64.4055 253.341 76.5837C236.033 99.279 218.137 122.744 196.271 142.075C178.693 157.664 160.244 169.008 139.858 176.733C104.268 190.229 63.4257 192.045 23.9223 193.805L22.4661 193.869C14.2913 194.233 6.01657 194.616 -2.12761 195.006C-33.8625 196.529 -65.8446 198.241 -96.7724 199.896L-119.662 201.119C-161.446 203.34 -199.173 205.309 -237.743 206.873C-282.809 208.701 -322.101 209.583 -357.868 209.568L-357.855 209.85C-322.084 209.867 -282.784 208.985 -237.714 207.155C-199.138 205.591 -161.411 203.623 -119.626 201.402L-96.7366 200.178C-65.8066 198.522 -33.8246 196.81 -2.09409 195.29C6.05009 194.9 14.3239 194.515 22.4987 194.151L23.9549 194.087C63.4887 192.326 104.369 190.506 140.02 176.987C160.447 169.238 178.929 157.883 196.537 142.27C218.424 122.92 236.33 99.443 253.644 76.7381C262.934 64.5561 272.541 51.9589 282.698 40.0712C310.047 8.05843 345.125 -20.7921 384.142 -43.3636C424.063 -66.4588 467.809 -83.3187 514.199 -93.4682C563.066 -104.167 612.094 -106.89 659.926 -101.565Z" fill="white" fill-opacity="0.6"/>
<path d="M507.48 -90.0443C522.625 -93.1374 537.76 -95.5039 552.811 -97.1322C590.561 -101.239 628.363 -100.938 665.17 -96.2327L665.127 -95.9553C612.004 -102.745 558.297 -100.368 507.48 -90.0443ZM141.264 183.422C104.769 197.595 61.4208 198.243 23.1744 198.816L-362.88 204.586L-362.899 204.303L23.1509 198.535C61.3586 197.964 104.667 197.316 141.097 183.168C192.108 163.359 220.411 121.808 247.783 81.6208C257.42 67.4729 267.387 52.8424 278.188 39.4037C297.889 14.8926 322.524 -7.29499 351.409 -26.5441C363.42 -34.5357 375.91 -41.8884 388.779 -48.5432C345.004 -25.7552 307.046 4.03214 278.488 39.5621C267.694 52.9928 257.731 67.6194 248.094 81.7628C234.408 101.854 220.256 122.629 203.417 140.453C190.432 154.199 176.774 165.132 162.06 173.52C155.372 177.333 148.405 180.651 141.26 183.424L141.264 183.422Z" fill="white" fill-opacity="0.6"/>
<rect x="392" y="96" width="392" height="96" transform="rotate(180 392 96)" fill="url(#paint2_linear_5099_69052)"/>
</g>
<defs>
<linearGradient id="paint0_linear_5099_69052" x1="392" y1="91.9333" x2="-68.657" y2="161.908" gradientUnits="userSpaceOnUse">
<stop stop-color="#FF5F2D"/>
<stop offset="1" stop-color="#FF5A26"/>
</linearGradient>
<linearGradient id="paint1_linear_5099_69052" x1="0" y1="0" x2="407.404" y2="167.67" gradientUnits="userSpaceOnUse">
<stop stop-color="#EAEAEA"/>
<stop offset="0.942708" stop-color="#D7D7D7"/>
</linearGradient>
<linearGradient id="paint2_linear_5099_69052" x1="588" y1="96" x2="588" y2="192" gradientUnits="userSpaceOnUse">
<stop stop-opacity="0"/>
<stop offset="1" stop-opacity="0.15"/>
</linearGradient>
</defs>
</svg>
